<svg width="25" height="24" viewBox="0 0 25 24" fill="none" xmlns="http://www.w3.org/2000/svg">
<path d="M13.4441 1.47954C14.6976 0.536825 16.1516 0.0654664 17.7937 0.0654664C18.6962 0.0654664 19.6864 0.314239 20.7644 0.837971C21.8424 1.34861 22.6948 1.9509 23.3215 2.64484C24.6126 4.32079 25.1516 6.27169 24.9636 8.49755C24.763 10.7234 24.0611 12.4648 22.8452 13.6956L13.3313 23.6334C13.0931 23.8822 12.7923 24 12.4413 24C12.0903 24 11.802 23.8822 11.5639 23.6334C11.4481 23.5141 11.3572 23.3711 11.2968 23.2134C11.2364 23.0557 11.2078 22.8866 11.2129 22.7169C11.2129 22.3502 11.3257 22.036 11.5639 21.7872L17.3173 15.7774C17.6307 15.4894 17.6307 15.1882 17.3173 14.8609C17.004 14.5336 16.7157 14.5336 16.4399 14.8609L10.6864 20.8707C10.5704 20.9928 10.4314 21.0884 10.2782 21.1515C10.125 21.2146 9.961 21.2438 9.79645 21.2373C9.44548 21.2373 9.15718 21.1195 8.91901 20.8707C8.80324 20.7514 8.71231 20.6084 8.65192 20.4507C8.59152 20.293 8.56297 20.124 8.56804 19.9542C8.56804 19.5876 8.68085 19.2733 8.91901 19.0246L14.6725 13.0147C15.0109 12.6874 15.0109 12.3601 14.6725 12.0327C14.3842 11.7054 14.1084 11.7054 13.7951 12.0327L8.04158 18.108C7.92425 18.2282 7.78503 18.3226 7.63216 18.3855C7.47929 18.4485 7.31588 18.4788 7.1516 18.4746C6.80063 18.4746 6.49979 18.3568 6.23656 18.108C5.98587 17.8592 5.86052 17.5581 5.86052 17.1915C5.86052 16.8249 5.9984 16.4975 6.27417 16.2095L12.0402 10.1866C12.3536 9.85925 12.3536 9.5581 12.0402 9.27005C11.7268 8.982 11.426 8.982 11.1502 9.27005L5.33405 15.3061C5.05829 15.5679 4.76999 15.7119 4.45662 15.7119C4.10564 15.7119 3.80481 15.581 3.57918 15.3061C3.34102 15.0442 3.21567 14.73 3.21567 14.3633C3.21567 13.9967 3.34102 13.6956 3.57918 13.4468C7.41483 9.41408 9.78392 6.97872 10.6864 6.07529L15.1488 10.6841C15.6377 11.1686 16.2017 11.4173 16.8912 11.4173C17.7686 11.4173 18.458 11.0507 18.9719 10.3175C19.3229 9.78069 19.4483 9.19149 19.348 8.53683C19.2477 7.88216 18.9845 7.33224 18.5583 6.87398L13.4441 1.47954ZM16.0263 9.7676L10.6864 4.17676L1.81177 13.4468C0.758845 12.3339 0.157173 10.6318 0.0192904 8.31424C-0.118593 6.00982 0.483079 4.00655 1.81177 2.33061C3.30341 0.785598 5.08336 0 7.1516 0C9.23238 0 10.9998 0.785598 12.4413 2.33061L17.7937 7.92144C18.0318 8.17021 18.1446 8.47136 18.1446 8.83797C18.1446 9.20458 18.0318 9.51882 17.7937 9.7676C17.5555 10.0033 17.2672 10.1342 16.8912 10.1342C16.5527 10.1342 16.2644 10.0033 16.0263 9.7676Z" fill="#FF8985"/>
</svg>
